<svg id="visual" viewBox="0 0 700 400" width="700" height="400" xmlns="http://www.w3.org/2000/svg" xmlns:xlink="http://www.w3.org/1999/xlink" version="1.1"><rect x="0" y="0" width="700" height="400" fill="#fdfdfd"></rect><path d="M0 283L64 290L127 289L191 276L255 281L318 301L382 272L445 277L509 279L573 261L636 291L700 307L700 401L636 401L573 401L509 401L445 401L382 401L318 401L255 401L191 401L127 401L64 401L0 401Z" fill="#5eead4"></path><path d="M0 325L64 291L127 289L191 278L255 291L318 329L382 318L445 295L509 329L573 313L636 300L700 323L700 401L636 401L573 401L509 401L445 401L382 401L318 401L255 401L191 401L127 401L64 401L0 401Z" fill="#4cd0bc"></path><path d="M0 348L64 328L127 317L191 318L255 348L318 337L382 332L445 304L509 345L573 345L636 346L700 351L700 401L636 401L573 401L509 401L445 401L382 401L318 401L255 401L191 401L127 401L64 401L0 401Z" fill="#39b6a4"></path><path d="M0 329L64 362L127 336L191 349L255 334L318 330L382 336L445 366L509 363L573 343L636 355L700 334L700 401L636 401L573 401L509 401L445 401L382 401L318 401L255 401L191 401L127 401L64 401L0 401Z" fill="#269d8d"></path><path d="M0 362L64 373L127 390L191 358L255 389L318 356L382 372L445 368L509 373L573 356L636 382L700 366L700 401L636 401L573 401L509 401L445 401L382 401L318 401L255 401L191 401L127 401L64 401L0 401Z" fill="#0e8477"></path></svg>